<svg width="52" height="52" viewBox="0 0 52 52" fill="none" xmlns="http://www.w3.org/2000/svg">
<path d="M43.3333 6.5H8.66667C6.27684 6.5 4.33334 8.4435 4.33334 10.8333V41.1667C4.33334 43.5565 6.27684 45.5 8.66667 45.5H43.3333C45.7232 45.5 47.6667 43.5565 47.6667 41.1667V10.8333C47.6667 8.4435 45.7232 6.5 43.3333 6.5ZM8.66667 41.1667V15.1667H43.3333L43.3377 41.1667H8.66667Z" fill="#13FF00"/>
<path d="M20.1348 20.1349L12.103 28.1667L20.1348 36.1986L23.1985 33.1349L18.2303 28.1667L23.1985 23.1986L20.1348 20.1349ZM31.8652 20.1349L28.8015 23.1986L33.7697 28.1667L28.8015 33.1349L31.8652 36.1986L39.897 28.1667L31.8652 20.1349Z" fill="#13FF00"/>
</svg>
