<svg width="53" height="52" viewBox="0 0 53 52" fill="none" xmlns="http://www.w3.org/2000/svg">
<path d="M46.1984 5.15666C43.7192 4.61189 41.1865 4.3358 38.6459 4.33333C36.2465 4.18386 33.8406 4.50124 31.5667 5.26723C29.2928 6.03321 27.1956 7.23268 25.3959 8.79666C23.0256 11.1222 20.6774 13.4406 18.3513 15.7517C15.6792 15.47 9.34127 15.3183 5.10127 19.5217C4.68997 19.9276 4.45911 20.4768 4.45911 21.0492C4.45911 21.6216 4.68997 22.1707 5.10127 22.5767L30.0554 47.1033C30.4692 47.5069 31.0289 47.7334 31.6123 47.7334C32.1957 47.7334 32.7554 47.5069 33.1692 47.1033C37.4754 42.77 37.3429 36.66 37.0779 34.1033L44.1667 27.17C51.2113 20.2583 48.0092 7.28 47.8767 6.73833C47.7747 6.34754 47.5636 5.99243 47.2671 5.71299C46.9706 5.43355 46.6004 5.24088 46.1984 5.15666ZM40.9867 24.115L33.125 31.785C32.8704 32.0372 32.6829 32.347 32.5789 32.687C32.475 33.027 32.4577 33.3869 32.5288 33.735C33.0058 36.6336 32.5906 39.6059 31.3363 42.2717L9.98169 21.2767C12.7418 20.0303 15.8272 19.6519 18.815 20.1933C19.1685 20.2385 19.5279 20.199 19.8625 20.0783C20.197 19.9575 20.4969 19.7591 20.7363 19.5C20.7363 19.5 23.8279 16.3583 28.4875 11.7867C31.3527 9.52925 34.9802 8.4151 38.6459 8.66666C40.3701 8.67505 42.0908 8.81996 43.7913 9.1C44.3213 12.1983 45.1604 20.02 40.9867 24.115Z" fill="#13FF00"/>
<path d="M34.7371 22.3167C37.1764 22.3167 39.1538 20.3766 39.1538 17.9834C39.1538 15.5901 37.1764 13.65 34.7371 13.65C32.2978 13.65 30.3204 15.5901 30.3204 17.9834C30.3204 20.3766 32.2978 22.3167 34.7371 22.3167Z" fill="#13FF00"/>
<path d="M11.0417 34.6666C6.625 36.8333 6.625 45.5 6.625 45.5C10.7128 45.3855 14.6261 43.8497 17.6667 41.1666L11.0417 34.6666Z" fill="#13FF00"/>
</svg>
